<svg width="426" height="314" viewBox="0 0 426 314" fill="none" xmlns="http://www.w3.org/2000/svg">
<rect x="306.847" y="48.6972" width="5" height="16.94" rx="2.5" transform="rotate(19.222 306.847 48.6972)" fill="#E8BF2F"/>
<rect x="365" y="122" width="5" height="16.94" rx="2.5" transform="rotate(-90 365 122)" fill="#E8BF2F"/>
<rect x="365" y="214" width="5" height="16.94" rx="2.5" transform="rotate(-90 365 214)" fill="#E8BF2F"/>
<rect x="155.846" y="49.0654" width="5" height="16.9375" rx="2.5" transform="rotate(-12.9124 155.846 49.0654)" fill="#E8BF2F"/>
<rect x="400.461" y="38" width="5" height="61" rx="2.5" transform="rotate(44.1133 400.461 38)" fill="#E8BF2F"/>
<rect x="228" y="5" width="5" height="61" rx="2.5" fill="#E8BF2F"/>
<rect x="365" y="168" width="5" height="61" rx="2.5" transform="rotate(-90 365 168)" fill="#E8BF2F"/>
<rect x="81.8425" y="209" width="5" height="16.94" rx="2.5" transform="rotate(90 81.8425 209)" fill="#E8BF2F"/>
<rect x="82.1572" y="117" width="5" height="16.94" rx="2.5" transform="rotate(90 82.1572 117)" fill="#E8BF2F"/>
<rect x="82" y="162.925" width="5" height="61" rx="2.5" transform="rotate(90 82 162.925)" fill="#E8BF2F"/>
<rect x="64" y="30.671" width="5" height="61" rx="2.5" transform="rotate(-32.2901 64 30.671)" fill="#E8BF2F"/>
<rect x="147.953" y="288.634" width="5" height="16.94" rx="2.5" transform="rotate(-162.443 147.953 288.634)" fill="#E8BF2F"/>
<rect x="298.879" y="283.88" width="5" height="16.9375" rx="2.5" transform="rotate(165.423 298.879 283.88)" fill="#E8BF2F"/>
<rect x="54.6895" y="302.046" width="5" height="61" rx="2.5" transform="rotate(-137.551 54.6895 302.046)" fill="#E8BF2F"/>
<rect x="391.221" y="299.598" width="5" height="61" rx="2.5" transform="rotate(146.045 391.221 299.598)" fill="#E8BF2F"/>
</svg>
